<?xml version="1.0" standalone="no"?>
<!DOCTYPE svg PUBLIC "-//W3C//DTD SVG 20010904//EN"
 "http://www.w3.org/TR/2001/REC-SVG-20010904/DTD/svg10.dtd">
<svg version="1.0" xmlns="http://www.w3.org/2000/svg"
 width="307.000000pt" height="279.000000pt" viewBox="0 0 307.000000 279.000000"
 preserveAspectRatio="xMidYMid meet">

<g transform="translate(0.000000,279.000000) scale(0.100000,-0.100000)"
fill="#000000" stroke="none">
<path d="M1300 2625 c-388 -59 -725 -260 -918 -546 -186 -276 -192 -654 -16
-952 62 -104 228 -273 339 -346 251 -164 485 -236 820 -250 126 -6 191 -13
215 -24 19 -8 100 -63 180 -121 79 -58 147 -103 151 -98 3 4 26 86 49 182 24
96 50 183 58 193 9 10 50 39 93 64 280 166 462 391 531 657 26 103 29 288 4
389 -45 189 -120 321 -266 467 -192 193 -412 308 -705 370 -133 28 -400 35
-535 15z m-120 -777 c34 -127 65 -240 69 -250 5 -13 34 63 90 232 l82 251 102
-3 101 -3 75 -247 c41 -136 77 -246 79 -243 2 2 36 113 75 247 l72 243 124 3
c68 1 128 -1 132 -5 5 -5 -54 -202 -129 -438 l-138 -430 -126 -3 -127 -3 -51
163 c-28 90 -61 192 -72 228 l-21 64 -74 -227 -74 -227 -127 0 -127 0 -128
433 c-70 237 -128 435 -127 440 0 4 58 7 129 7 l128 0 63 -232z"/>
</g>
</svg>
